<svg width="785" height="533" viewBox="0 0 785 533" fill="none" xmlns="http://www.w3.org/2000/svg">
<rect x="0.0180664" width="784.964" height="533" fill="#FF3535"/>
<path d="M176.737 406.058H187.156V429.376C184.179 431.856 180.706 433.841 176.737 434.833C172.768 435.825 168.799 436.818 164.334 436.818C158.381 436.818 152.923 435.329 148.458 432.849C143.497 430.368 140.024 426.895 137.544 421.934C134.567 417.469 133.079 412.508 133.079 406.554C133.079 401.097 134.567 395.64 137.048 391.175C139.528 386.71 143.497 383.237 148.458 380.26C153.42 377.779 158.381 376.291 164.83 376.291C169.791 376.291 174.257 377.283 178.225 378.772C182.194 380.26 185.667 382.741 188.148 385.717L181.202 392.663C176.737 388.198 171.28 385.717 165.326 385.717C161.357 385.717 157.388 386.71 154.412 388.198C150.939 389.686 148.954 392.167 146.97 395.64C144.985 398.616 144.489 402.585 144.489 406.058C144.489 409.531 145.482 413.5 146.97 416.477C148.954 419.453 151.435 421.934 154.412 423.918C157.885 425.903 161.357 426.399 165.326 426.399C169.791 426.399 173.76 425.407 177.233 423.422L176.737 406.058Z" fill="white"/>
<path d="M254.132 426.892V435.822H210.474V377.776H252.644V386.707H220.892V401.59H249.171V410.52H220.892V426.396H254.132V426.892Z" fill="white"/>
<path d="M285.883 432.849C280.921 430.368 277.449 426.895 274.968 421.934C272.487 417.469 270.999 412.012 270.999 406.554C270.999 401.097 272.487 395.64 274.968 391.175C277.449 386.71 281.418 383.237 285.883 380.26C290.844 377.779 295.805 376.291 301.758 376.291C307.712 376.291 313.169 377.779 317.634 380.26C322.595 382.741 326.068 386.213 328.549 391.175C331.029 395.64 332.518 401.097 332.518 406.554C332.518 412.012 331.029 417.469 328.549 421.934C326.068 426.399 322.099 429.872 317.634 432.849C312.673 435.329 307.712 436.818 301.758 436.818C296.301 436.818 290.844 435.329 285.883 432.849ZM312.673 424.415C315.65 422.43 318.13 420.446 320.115 416.973C322.099 413.996 322.595 410.523 322.595 406.554C322.595 402.585 321.603 399.113 320.115 396.136C318.13 393.159 315.65 390.678 312.673 388.694C309.696 386.71 306.224 386.213 302.255 386.213C298.286 386.213 294.813 387.206 291.836 388.694C288.859 390.678 286.379 392.663 284.394 396.136C282.41 399.113 281.914 402.585 281.914 406.554C281.914 410.523 282.906 413.996 284.394 416.973C286.379 419.95 288.859 422.43 291.836 424.415C294.813 426.399 298.286 426.895 302.255 426.895C305.727 427.391 309.2 426.399 312.673 424.415Z" fill="white"/>
<path d="M422.813 380.257C426.286 381.745 429.263 384.226 431.248 387.203C433.232 390.179 434.224 394.148 434.224 398.117C434.224 402.582 433.232 406.055 431.248 409.032C429.263 412.009 426.286 414.489 422.813 415.978C419.341 417.466 414.876 418.458 409.418 418.458H396.023V435.326H385.108V377.776H408.922C414.876 377.776 419.341 378.272 422.813 380.257ZM419.837 407.047C422.317 405.063 423.31 402.086 423.31 398.613C423.31 395.141 422.317 392.164 419.837 390.179C417.356 388.195 413.883 387.203 408.922 387.203H396.519V410.52H408.922C413.883 410.024 417.356 409.032 419.837 407.047Z" fill="white"/>
<path d="M497.725 426.892V435.822H454.066V377.776H496.237V386.707H464.485V401.59H492.764V410.52H464.485V426.396H497.725V426.892Z" fill="white"/>
<path d="M556.764 435.822L544.857 418.954C544.361 418.954 543.865 418.954 542.872 418.954H529.973V435.822H519.059V377.776H542.872C547.834 377.776 552.299 378.769 556.268 380.257C559.74 381.745 562.717 384.226 564.702 387.203C566.686 390.179 567.678 394.148 567.678 398.117C567.678 402.582 566.686 406.055 564.205 409.528C562.221 412.505 558.748 414.985 555.275 416.474L568.671 435.326L556.764 435.822ZM553.291 389.683C550.81 387.699 547.337 386.707 542.376 386.707H529.973V410.024H542.376C546.841 410.024 550.81 409.032 553.291 407.047C555.771 405.063 556.764 402.086 556.764 398.613C556.764 394.644 555.771 391.668 553.291 389.683Z" fill="white"/>
<path d="M594.968 429.869C590.503 425.404 588.518 418.954 588.518 410.52V377.776H599.433V410.024C599.433 421.435 604.394 426.892 614.317 426.892C624.239 426.892 629.2 421.435 629.2 410.024V377.776H639.619V410.52C639.619 418.954 637.634 425.404 633.169 429.869C628.704 434.334 622.254 436.814 614.317 436.814C605.882 436.814 599.433 434.334 594.968 429.869ZM617.789 361.404H630.192L615.805 372.815H606.875L617.789 361.404Z" fill="white"/>
<path d="M630.188 308.822L605.879 263.179C605.382 262.186 604.39 261.69 603.398 261.194L578.592 254.745L530.965 197.691C530.468 197.195 530.468 197.195 529.972 196.699H529.476C529.476 196.699 528.98 196.699 528.484 196.202L447.12 176.358L372.702 96.4825C372.206 95.9864 371.71 95.9864 371.214 95.4902H370.718C370.222 95.4902 369.726 95.4902 369.726 95.4902H369.23C368.733 95.4902 368.237 95.9864 367.741 95.9864L339.462 124.761C339.462 124.761 338.966 125.257 338.966 125.754L301.757 188.265C301.757 188.265 301.757 188.265 301.261 188.761L276.951 212.574L239.246 173.877C238.254 172.885 237.262 172.389 236.27 172.885C235.277 172.885 233.789 173.381 233.293 174.373L202.533 216.543L202.037 217.04L174.255 279.551L153.914 289.473C152.921 289.969 152.425 290.465 151.929 291.457L142.503 311.302C142.007 312.294 142.007 313.783 142.503 314.775C142.999 315.767 143.991 316.76 145.48 316.76L204.518 327.178H205.014L423.803 335.116H424.299L532.453 332.139H532.949C532.949 332.139 532.949 332.139 533.445 332.139L628.204 314.775C629.692 314.775 630.941 313.511 631.181 312.791C631.677 311.302 630.685 309.814 630.188 308.822ZM461.508 251.768L415.369 170.404L441.663 182.807L461.508 251.768ZM394.532 256.729L455.554 277.566L413.88 281.535V281.039C413.88 280.543 413.384 280.047 413.384 279.551L394.532 256.729ZM404.95 282.527L324.579 290.465L290.843 249.783L381.136 252.264L404.95 282.527ZM388.082 245.814L406.935 171.893L463.988 272.605L388.082 245.814ZM427.772 167.924L408.423 158.497L390.563 127.242L427.772 167.924ZM370.718 108.389L400.981 161.97L379.648 244.326L341.447 242.838L354.346 155.025L370.718 108.389ZM344.92 130.219L360.796 114.343L347.4 153.536V154.032L335.493 234.9L309.199 191.241L344.92 130.219ZM303.742 197.691L331.028 243.334L285.881 241.845L281.416 220.016L303.742 197.691ZM236.766 182.807L273.478 220.016L277.944 242.838L241.231 265.659L210.471 219.024L236.766 182.807ZM151.433 309.814L157.883 295.923L175.247 287.488L195.588 317.256L151.433 309.814ZM181.696 282.031L206.502 226.962L235.773 271.613L204.518 315.767L181.696 282.031ZM243.215 274.589L281.913 250.28L316.145 291.954L213.944 316.76L243.215 274.589ZM233.293 320.232L324.083 298.403L408.423 290.465L418.841 327.178L233.293 320.232ZM426.283 327.178L415.865 289.473L472.422 284.016L521.042 324.697L426.283 327.178ZM477.384 277.566L450.593 185.784L523.523 203.644L527.988 319.736L477.384 277.566ZM531.957 211.582L571.15 258.217L535.43 314.775L531.957 211.582ZM540.391 322.713L578.096 262.683L599.429 268.636L620.762 307.829L540.391 322.713Z" fill="white"/>
</svg>
