<svg width="14" height="50" viewBox="0 0 14 50" fill="none" xmlns="http://www.w3.org/2000/svg">
<path d="M11.8935 12.9271L11.8935 12.9271C12.0049 12.6779 12.0483 12.42 12.0483 12.1733V2.36273C12.0483 2.12977 11.987 1.89272 11.8527 1.67889L11.8527 1.67887C11.6844 1.41106 11.4472 1.26681 11.2831 1.18982C11.0638 1.08425 10.8359 1.04709 10.6641 1.03096C10.4823 1.00863 10.2824 1 10.0731 1C9.85564 1 9.64921 1.00841 9.46527 1.03095C9.28317 1.04806 9.07179 1.08553 8.86686 1.1729C8.70473 1.24201 8.47154 1.36933 8.29094 1.60886C8.12651 1.82696 8.03854 2.08881 8.03854 2.36273V5.64743L6.46842 2.71584C6.35008 2.47572 6.22481 2.25396 6.09055 2.06006C5.94072 1.83797 5.7549 1.62848 5.52279 1.46151C5.2982 1.29599 5.04823 1.18489 4.78543 1.12227C4.53245 1.05666 4.2647 1.03374 4.00132 1.03374H2.80562C2.36444 1.03374 1.93662 1.17181 1.58131 1.47426C1.13861 1.8501 1 2.36937 1 2.82669V12.6373C1 12.8702 1.06131 13.1073 1.19566 13.3211C1.36828 13.5958 1.61346 13.7406 1.77781 13.816L1.80735 13.8296L1.83771 13.8412C2.01743 13.9099 2.20783 13.9451 2.37166 13.9664C2.55996 13.9908 2.77058 14 2.99218 14C3.21803 14 3.43197 13.9909 3.62118 13.9664C3.78501 13.9451 3.97541 13.9099 4.15513 13.8412L4.17268 13.8345L4.18996 13.8271C4.34342 13.7617 4.59679 13.6283 4.78052 13.3595C4.93006 13.1479 5.0098 12.8981 5.0098 12.6373V8.83551L6.72623 12.0435C6.87363 12.3362 7.01463 12.5931 7.14874 12.8065L7.15257 12.8126L7.15649 12.8187C7.30379 13.0458 7.47418 13.2596 7.6742 13.4396L7.69266 13.4562L7.71193 13.4719C7.93305 13.6519 8.18758 13.7909 8.47342 13.8705L8.47341 13.8706L8.48304 13.8732C8.73526 13.9407 8.99841 13.9663 9.25902 13.9663H10.2088C10.4046 13.9663 10.5989 13.9405 10.7889 13.888L10.8057 13.8833L10.8223 13.8781C11.0462 13.8078 11.2651 13.6931 11.4565 13.5213C11.6494 13.3533 11.794 13.1498 11.8935 12.9271ZM10.7939 12.7722C10.7204 12.8397 10.63 12.8903 10.5226 12.9241L10.8533 2.09279C10.9268 2.12653 10.9777 2.1659 11.0059 2.21089C11.0342 2.25588 11.0483 2.30649 11.0483 2.36273V12.1733C11.0483 12.3027 11.0257 12.4179 10.9805 12.5192C10.9353 12.6204 10.8731 12.7048 10.7939 12.7722Z" fill="white" stroke="#333333" stroke-width="2"/>
<path d="M8.53854 7.48313C8.53854 7.54706 8.53862 7.61151 8.53877 7.67648C8.53379 7.66719 8.52879 7.65791 8.52379 7.64863C8.40538 7.4131 8.28421 7.17485 8.16027 6.93389L8.16033 6.93385L8.1564 6.92651L6.0236 2.94434C5.91088 2.71492 5.79594 2.51254 5.67773 2.34217C5.55215 2.15553 5.40416 1.99159 5.22847 1.86572C5.05952 1.7407 4.86943 1.65566 4.66472 1.60751C4.46439 1.55496 4.23998 1.53374 4.00132 1.53374H2.80562C2.47196 1.53374 2.16193 1.63652 1.90512 1.85524C1.60744 2.10785 1.5 2.46591 1.5 2.82669V12.6373C1.5 12.7819 1.53772 12.9257 1.61903 13.0551C1.71947 13.215 1.86751 13.307 1.98643 13.3616L2.0012 13.3684L2.01637 13.3742C2.14299 13.4226 2.28907 13.4515 2.43599 13.4705C2.59516 13.4912 2.78244 13.5 2.99218 13.5C3.20687 13.5 3.39722 13.4912 3.55685 13.4705C3.70377 13.4515 3.84985 13.4226 3.97646 13.3742L3.98524 13.3708L3.99388 13.3672C4.10916 13.318 4.26329 13.2318 4.36982 13.0742C4.46144 12.9461 4.5098 12.7958 4.5098 12.6373V6.92638C4.5098 6.89787 4.50977 6.86941 4.50973 6.84102L7.17002 11.8131C7.31435 12.1 7.44846 12.3437 7.57211 12.5405L7.57206 12.5406L7.57598 12.5466C7.70617 12.7473 7.84931 12.9245 8.00868 13.068L8.01791 13.0763L8.02755 13.0841C8.2003 13.2247 8.39399 13.3294 8.60758 13.3889L8.60757 13.3889L8.61239 13.3902C8.81199 13.4436 9.02978 13.4663 9.25902 13.4663H10.2088C10.3604 13.4663 10.5098 13.4463 10.6557 13.406L10.6641 13.4037L10.6724 13.4011C10.8379 13.3491 10.9927 13.2665 11.1252 13.1468C11.2613 13.029 11.3647 12.885 11.437 12.7231L10.9805 12.5192L11.437 12.7231C11.5153 12.5479 11.5483 12.3613 11.5483 12.1733V2.36273C11.5483 2.21813 11.5106 2.0743 11.4293 1.94489L11.4293 1.94488C11.3307 1.78792 11.1862 1.69635 11.0684 1.6414C10.9232 1.57095 10.7589 1.54165 10.6103 1.52812C10.454 1.50849 10.2734 1.5 10.0731 1.5C9.86316 1.5 9.67647 1.50837 9.51904 1.52811C9.36401 1.54222 9.20574 1.57197 9.06294 1.63284C8.9423 1.68427 8.79744 1.76761 8.69018 1.90988C8.591 2.04142 8.53854 2.19765 8.53854 2.36273V7.48313Z" fill="white" stroke="#333333"/>
<path d="M5.05449 47.7982C5.19945 48.4633 5.78144 49 6.52392 49C7.2664 49 7.8484 48.4633 7.99336 47.7982L11.3248 32.5127C11.4201 32.0758 11.3246 31.6107 11.0503 31.2457C10.7736 30.8774 10.337 30.6444 9.8554 30.6444L3.19244 30.6444C2.71083 30.6444 2.27423 30.8774 1.99754 31.2457C1.72323 31.6107 1.6278 32.0758 1.72301 32.5127L5.05449 47.7982Z" fill="#333333" stroke="#333333" stroke-width="2" stroke-miterlimit="10" stroke-linecap="round" stroke-linejoin="round"/>
<path d="M7.99654 15.5312C7.86529 14.8889 7.31388 14.2891 6.52442 14.2891C5.73495 14.2891 5.18354 14.8889 5.05229 15.5312L1.72081 31.8358C1.63344 32.2634 1.71857 32.7244 1.97996 33.0955C2.24534 33.4722 2.68393 33.735 3.19293 33.735L9.85589 33.735C10.3649 33.735 10.8035 33.4722 11.0689 33.0955C11.3303 32.7244 11.4154 32.2634 11.328 31.8358L7.99654 15.5312Z" fill="#333333" stroke="#333333" stroke-width="2" stroke-miterlimit="10" stroke-linecap="round" stroke-linejoin="round"/>
<path fill-rule="evenodd" clip-rule="evenodd" d="M6.54834 47.8418C6.33369 47.8418 6.14745 47.6822 6.09919 47.4568L3.06015 33.2665C3.02857 33.1191 3.06112 32.9641 3.14857 32.8457C3.23602 32.7272 3.36883 32.6582 3.5093 32.6582L9.58738 32.6582C9.72786 32.6582 9.86066 32.7272 9.94811 32.8457C10.0356 32.9641 10.0681 33.1191 10.0365 33.2665L6.99749 47.4568C6.94923 47.6822 6.76299 47.8418 6.54834 47.8418Z" fill="white"/>
<path fill-rule="evenodd" clip-rule="evenodd" d="M6.54834 16.4609C6.76299 16.4609 6.94923 16.6312 6.99749 16.8716L10.0365 32.0079C10.0681 32.1652 10.0356 32.3305 9.94811 32.4568C9.86066 32.5832 9.72785 32.6568 9.58738 32.6568L3.5093 32.6568C3.36882 32.6568 3.23602 32.5832 3.14857 32.4568C3.06111 32.3305 3.02856 32.1652 3.06015 32.0079L6.09919 16.8716C6.14745 16.6312 6.33369 16.4609 6.54834 16.4609Z" fill="#FF3535"/>
</svg>
